<svg width="158" height="170" viewBox="0 0 158 170" fill="none" xmlns="http://www.w3.org/2000/svg">
<g filter="url(#filter0_d_1_46)">
<path d="M71.4346 9.00815V109.533C98.3291 98.818 117.36 72.3482 117.36 41.3876V9.9519C117.36 9.61486 117.258 9.28577 117.067 9.00815H71.4346Z" fill="#7D8FE5"/>
<path d="M110.721 41.3874V8.79721H55.7202L69 110C69.8269 110 70.6538 109.844 71.4349 109.533C94.441 98.818 110.721 72.3482 110.721 41.3874Z" fill="#95B0ED"/>
<path d="M116.278 8.39438C114.44 7.71964 112.587 7.08435 110.721 6.48895L104.081 8.79721L110.721 13.5662L117.067 9.00813C116.874 8.72667 116.599 8.51217 116.278 8.39438ZM20.6392 9.95188V41.3876C20.6392 72.3482 39.6705 98.8179 66.565 109.533C67.3396 109.842 68.1659 110 68.9998 110V9.00813H20.9329C20.7416 9.28568 20.6391 9.6148 20.6392 9.95188Z" fill="#ACD2F6"/>
<path d="M110.721 13.5662V6.48897C81.7641 -2.75666 50.3379 -2.12299 21.7212 8.3944C21.4011 8.51227 21.1255 8.72675 20.9326 9.00815L68.9998 43.5315L110.721 13.5662Z" fill="#C4F3FF"/>
<path d="M68.9998 96.1421C59.1296 91.6796 50.6863 84.5986 44.4647 75.536C37.5656 65.4872 33.9189 53.6786 33.9189 41.3874V18.3352C45.2769 14.9768 57.04 13.2785 68.9998 13.2785C80.9596 13.2785 92.7226 14.9768 104.081 18.3352V41.3874C104.081 53.6786 100.434 65.4872 93.5349 75.536C87.3133 84.5986 78.8696 91.6801 68.9998 96.1421Z" fill="white"/>
<path d="M69 88.7574C61.4133 84.777 54.8656 78.9542 49.9388 71.778C43.8025 62.8401 40.5591 52.3313 40.5591 41.3874V23.4052C49.8215 21.0899 59.3659 19.9184 69 19.9184C78.6341 19.9184 88.1785 21.0899 97.4409 23.4052V41.3874C97.4409 52.3311 94.1976 62.8401 88.0612 71.778C83.1344 78.9545 76.5868 84.777 69 88.7574Z" fill="#666DDC"/>
<path d="M90.801 21.9526L69 88.7574C76.5868 84.7772 83.1344 78.9545 88.0612 71.778C94.1976 62.8401 97.4409 52.3313 97.4409 41.3874V23.4052C95.2422 22.8565 93.028 22.3721 90.801 21.9526Z" fill="#5C2BC8"/>
<path d="M68.9996 19.9184L57.9331 54.3379L68.9996 88.7574C74.8151 84.7772 79.8342 78.9545 83.6107 71.7781C88.3144 62.8401 90.8006 52.3313 90.8006 41.3874V21.9526C83.6127 20.5978 76.3141 19.9168 68.9996 19.9184Z" fill="#4E4CD3"/>
<path d="M40.5591 23.4052V41.3874C40.5591 52.3311 43.8025 62.8401 49.9388 71.778C54.8654 78.9542 61.413 84.7768 69 88.7574V19.9184C59.3659 19.9184 49.8215 21.0899 40.5591 23.4052Z" fill="#666DDC"/>
</g>
<defs>
<filter id="filter0_d_1_46" x="-6" y="-3.05176e-05" width="170" height="170" filterUnits="userSpaceOnUse" color-interpolation-filters="sRGB">
<feFlood flood-opacity="0" result="BackgroundImageFix"/>
<feColorMatrix in="SourceAlpha" type="matrix" values="0 0 0 0 0 0 0 0 0 0 0 0 0 0 0 0 0 0 127 0" result="hardAlpha"/>
<feOffset dx="10" dy="30"/>
<feGaussianBlur stdDeviation="15"/>
<feComposite in2="hardAlpha" operator="out"/>
<feColorMatrix type="matrix" values="0 0 0 0 0.345226 0 0 0 0 0.3638 0 0 0 0 0.854167 0 0 0 0.6 0"/>
<feBlend mode="normal" in2="BackgroundImageFix" result="effect1_dropShadow_1_46"/>
<feBlend mode="normal" in="SourceGraphic" in2="effect1_dropShadow_1_46" result="shape"/>
</filter>
</defs>
</svg>
