<svg width="208" height="246" viewBox="0 0 208 246" fill="none" xmlns="http://www.w3.org/2000/svg">
<g clip-path="url(#clip0_216_150)">
<path d="M156.031 131.868L146.001 130.196C140.871 129.336 136.591 125.899 134.546 120.993L134.518 120.926C134.465 120.802 134.413 120.676 134.357 120.551C132.294 115.631 132.879 110.152 135.929 105.883L141.63 97.8902C142.446 96.7446 142.831 95.3466 142.714 93.9446C142.598 92.5426 141.988 91.2271 140.994 90.232L124.211 73.4452C123.216 72.4499 121.9 71.8399 120.497 71.7238C119.094 71.6076 117.695 71.9927 116.55 72.8107L108.274 78.7199C104.038 81.742 98.6044 82.3484 93.7133 80.3324L93.3296 80.176C88.3271 78.1473 84.8232 73.8389 83.9577 68.6504L82.3403 58.968C81.8599 56.1015 79.3801 54.0007 76.4738 54.0007H52.733C51.3254 54.0011 49.9636 54.5005 48.8894 55.4103C47.8153 56.32 47.0986 57.5811 46.8666 58.9695L45.1948 68.9962C44.3353 74.1277 40.8985 78.4109 35.9886 80.4558L35.9196 80.485C35.7967 80.5364 35.6742 80.5886 35.5521 80.6418C30.6318 82.7072 25.1515 82.1211 20.8803 79.0728L12.888 73.3717C11.7425 72.5547 10.3445 72.1703 8.94233 72.2868C7.5402 72.4032 6.22476 73.0129 5.22973 74.0077L-11.5556 90.79C-12.5513 91.785 -13.1617 93.1011 -13.2782 94.504C-13.3947 95.9068 -13.0096 97.3056 -12.1916 98.4512L-6.28235 106.727C-3.26023 110.964 -2.65386 116.399 -4.67098 121.291L-4.82623 121.672C-6.85497 126.674 -11.1633 130.178 -16.3518 131.044L-26.0343 132.663C-28.8993 133.14 -31 135.621 -31 138.528V162.267C-31.0001 163.675 -30.5008 165.037 -29.591 166.111C-28.6812 167.185 -27.4198 167.902 -26.0313 168.133L-16.0046 169.805C-10.8731 170.665 -6.59135 174.102 -4.54648 179.008L-4.51873 179.074C-4.46736 179.199 -4.41336 179.326 -4.35898 179.451C-2.29499 184.371 -2.88111 189.85 -5.92947 194.118L-11.6306 202.112C-13.3181 204.476 -13.0481 207.715 -10.9946 209.77L5.7881 226.556C6.78331 227.551 8.09934 228.161 9.50214 228.278C10.9049 228.394 12.3036 228.009 13.4493 227.192L21.724 221.282C25.9615 218.26 31.3949 217.654 36.286 219.67L36.6696 219.826C41.6706 221.853 45.1761 226.162 46.0416 231.351L47.6589 241.033C47.8907 242.421 48.6073 243.682 49.6811 244.591C50.755 245.501 52.1166 246 53.5239 246H77.2647C78.6725 246 80.0349 245.501 81.1092 244.591C82.1835 243.682 82.9002 242.42 83.1315 241.031L84.804 231.005C85.6628 225.873 89.0993 221.591 94.0091 219.545L94.0796 219.516C94.2011 219.464 94.3241 219.413 94.4456 219.359C99.3675 217.295 104.848 217.88 109.117 220.928L117.11 226.629C119.476 228.317 122.714 228.048 124.768 225.993L141.555 209.212C142.55 208.216 143.16 206.9 143.276 205.497C143.392 204.094 143.007 202.695 142.189 201.55L136.28 193.274C133.258 189.038 132.652 183.604 134.669 178.709L134.825 178.33C136.853 173.326 141.161 169.824 146.351 168.957L156.032 167.34C157.42 167.108 158.681 166.391 159.59 165.317C160.5 164.243 160.999 162.882 160.999 161.475V137.734C160.999 134.828 158.898 132.346 156.031 131.869V131.868ZM50.7542 164.246C42.8893 156.38 42.8893 143.621 50.7542 135.756C58.6201 127.89 71.3791 127.89 79.2451 135.756C87.1099 143.621 87.1099 156.38 79.2451 164.246C71.3791 172.112 58.6201 172.112 50.7542 164.246Z" fill="#27488F"/>
<path d="M156.031 131.868L146.001 130.196C140.871 129.336 136.591 125.899 134.546 120.993L134.518 120.926C134.466 120.801 134.413 120.675 134.357 120.551C132.294 115.631 132.879 110.152 135.929 105.882L141.63 97.8898C142.447 96.7442 142.831 95.3463 142.714 93.9442C142.598 92.5422 141.988 91.2268 140.994 90.2316L124.211 73.4448C123.216 72.4495 121.9 71.8396 120.497 71.7234C119.094 71.6072 117.696 71.9923 116.55 72.8103L108.274 78.7195C104.038 81.7416 98.6044 82.348 93.7133 80.332L93.3297 80.1756C88.3272 78.1469 84.8232 73.8385 83.9577 68.6501L82.3404 58.9676C81.86 56.1011 79.3801 54.0004 76.4739 54.0004H64.9982V129.855C70.1544 129.855 75.3106 131.823 79.2451 135.756C87.11 143.621 87.11 156.379 79.2451 164.245C75.3106 168.179 70.1544 170.144 64.9982 170.144V246H77.2662C78.674 246 80.0361 245.5 81.1103 244.591C82.1845 243.681 82.9011 242.419 83.1327 241.031L84.8041 231.004C85.664 225.873 89.1008 221.591 94.0107 219.545L94.0812 219.515C94.2027 219.464 94.3257 219.413 94.4472 219.359C99.3675 217.295 104.848 217.879 109.119 220.928L117.111 226.629C118.257 227.446 119.655 227.831 121.057 227.714C122.459 227.598 123.775 226.988 124.77 225.993L141.555 209.212C142.551 208.216 143.161 206.9 143.277 205.497C143.394 204.094 143.009 202.695 142.191 201.549L136.282 193.274C133.26 189.038 132.653 183.603 134.67 178.709L134.827 178.33C136.854 173.326 141.163 169.824 146.351 168.957L156.033 167.339C157.421 167.107 158.682 166.391 159.592 165.317C160.501 164.243 161.001 162.882 161.001 161.474V137.733C160.999 134.827 158.899 132.346 156.031 131.868V131.868Z" fill="#12254C"/>
<path d="M64.9996 199.944C52.2043 199.944 39.409 195.073 29.6676 185.332C10.1853 165.85 10.1853 134.15 29.6676 114.668C49.1499 95.1857 80.8493 95.1872 100.332 114.668C119.814 134.15 119.814 165.851 100.332 185.334C90.5903 195.073 77.7949 199.944 64.9996 199.944ZM64.9996 111.945C55.2482 111.945 45.5012 115.655 38.0773 123.079C23.2327 137.924 23.2327 162.078 38.0773 176.922C52.922 191.767 77.0772 191.767 91.9219 176.922C106.767 162.078 106.767 137.924 91.9219 123.078C84.4995 115.657 74.7481 111.945 64.9996 111.945Z" fill="#19CFFC"/>
<path d="M64.9982 100.056V111.945H64.9997C74.7481 111.945 84.4996 115.657 91.9219 123.079C106.767 137.924 106.767 162.078 91.9219 176.922C84.4996 184.345 74.7481 188.056 64.9982 188.055V199.945H64.9997C77.795 199.945 90.5903 195.074 100.332 185.333C119.814 165.851 119.814 134.15 100.332 114.668C90.5903 104.927 77.795 100.056 64.9982 100.056Z" fill="#4AB8F7"/>
</g>
<g clip-path="url(#clip1_216_150)">
<path d="M206.162 28.7953L202.453 28.1768C200.556 27.8589 198.974 26.5879 198.217 24.7738L198.207 24.7489C198.188 24.703 198.168 24.6564 198.148 24.6102C197.385 22.7908 197.601 20.7649 198.729 19.1859L200.837 16.2304C201.139 15.8068 201.281 15.2899 201.238 14.7714C201.195 14.2529 200.97 13.7665 200.602 13.3985L194.396 7.19087C194.028 6.82284 193.541 6.59728 193.022 6.55432C192.504 6.51136 191.986 6.65377 191.563 6.95624L188.502 9.14142C186.936 10.259 184.927 10.4832 183.118 9.73771L182.976 9.67989C181.126 8.92967 179.83 7.33648 179.51 5.41782L178.912 1.83733C178.735 0.777325 177.818 0.000488281 176.743 0.000488281H167.964C167.443 0.000619622 166.94 0.185305 166.542 0.521719C166.145 0.858133 165.88 1.32448 165.794 1.83788L165.176 5.54568C164.858 7.44326 163.587 9.02716 161.772 9.78333L161.746 9.79415C161.701 9.81315 161.656 9.83247 161.61 9.85211C159.791 10.6159 157.764 10.3992 156.185 9.27191L153.229 7.16369C152.806 6.86159 152.289 6.71945 151.77 6.76251C151.252 6.80557 150.765 7.03105 150.397 7.39888L144.19 13.6048C143.822 13.9728 143.596 14.4595 143.553 14.9782C143.51 15.497 143.653 16.0143 143.955 16.4379L146.14 19.4984C147.258 21.0649 147.482 23.0747 146.736 24.8838L146.679 25.0247C145.929 26.8746 144.335 28.1703 142.417 28.4904L138.836 29.089C137.777 29.2655 137 30.1831 137 31.2578V40.0364C137 40.557 137.185 41.0607 137.521 41.4579C137.857 41.8552 138.324 42.1202 138.837 42.2058L142.545 42.8239C144.443 43.1418 146.026 44.4128 146.782 46.2273L146.793 46.2517C146.812 46.2977 146.832 46.3449 146.852 46.3909C147.615 48.2104 147.398 50.2363 146.271 51.8148L144.163 54.7708C143.539 55.6451 143.638 56.8427 144.398 57.6028L150.604 63.8098C150.972 64.1779 151.459 64.4036 151.977 64.4467C152.496 64.4897 153.013 64.3474 153.437 64.045L156.497 61.8598C158.064 60.7423 160.073 60.518 161.882 61.2635L162.024 61.3214C163.873 62.071 165.169 63.6642 165.489 65.5833L166.087 69.1634C166.173 69.6767 166.438 70.1429 166.835 70.4792C167.232 70.8156 167.736 71.0002 168.256 71.0002H177.035C177.556 71.0004 178.06 70.8158 178.457 70.4793C178.854 70.1429 179.119 69.6763 179.205 69.1628L179.823 65.455C180.141 63.5574 181.412 61.9741 183.227 61.2174L183.253 61.2065C183.298 61.1875 183.344 61.1687 183.389 61.1486C185.209 60.3853 187.235 60.6015 188.814 61.7288L191.77 63.837C192.645 64.461 193.842 64.3619 194.602 63.6018L200.809 57.3963C201.177 57.0281 201.403 56.5413 201.446 56.0225C201.489 55.5037 201.346 54.9865 201.044 54.5628L198.859 51.5027C197.741 49.9363 197.517 47.9265 198.263 46.1167L198.321 45.9766C199.071 44.1261 200.664 42.8309 202.583 42.5103L206.163 41.9122C206.676 41.8265 207.142 41.5615 207.479 41.1644C207.815 40.7673 208 40.2638 208 39.7434V30.9643C208 29.8896 207.223 28.972 206.162 28.7955V28.7953ZM167.232 40.7682C164.324 37.8594 164.324 33.1413 167.232 30.2331C170.141 27.3241 174.859 27.3241 177.768 30.2331C180.676 33.1413 180.676 37.8594 177.768 40.7682C174.859 43.6771 170.141 43.6771 167.232 40.7682Z" fill="#27488F"/>
<path d="M206.162 28.795L202.453 28.1765C200.556 27.8586 198.974 26.5876 198.217 24.7735L198.207 24.7486C198.188 24.7027 198.168 24.6561 198.148 24.6099C197.385 22.7905 197.601 20.7646 198.729 19.1856L200.837 16.2301C201.139 15.8065 201.281 15.2896 201.238 14.7711C201.195 14.2526 200.97 13.7662 200.602 13.3982L194.396 7.19057C194.028 6.82253 193.541 6.59698 193.022 6.55401C192.504 6.51105 191.986 6.65347 191.563 6.95594L188.502 9.14112C186.936 10.2587 184.927 10.4829 183.118 9.73741L182.976 9.67958C181.126 8.92937 179.83 7.33617 179.51 5.41752L178.912 1.83702C178.735 0.77702 177.818 0.000183105 176.743 0.000183105H172.499V28.0508C174.406 28.0508 176.313 28.7782 177.768 30.2328C180.676 33.141 180.676 37.8591 177.768 40.7679C176.313 42.2224 174.406 42.9492 172.499 42.9492V70.9999H177.036C177.557 70.9999 178.06 70.8153 178.457 70.4789C178.855 70.1424 179.12 69.676 179.205 69.1625L179.823 65.4547C180.141 63.5571 181.412 61.9738 183.228 61.2171L183.254 61.2062C183.299 61.1872 183.344 61.1684 183.389 61.1483C185.209 60.385 187.235 60.6012 188.815 61.7285L191.77 63.8367C192.194 64.1389 192.711 64.2812 193.229 64.2381C193.748 64.195 194.234 63.9695 194.602 63.6015L200.809 57.396C201.178 57.0279 201.403 56.5412 201.446 56.0223C201.489 55.5035 201.347 54.9862 201.045 54.5625L198.859 51.5024C197.742 49.936 197.518 47.9262 198.263 46.1164L198.321 45.9762C199.071 44.1258 200.664 42.8306 202.583 42.51L206.163 41.9119C206.677 41.8262 207.143 41.5613 207.479 41.1642C207.816 40.7671 208 40.2635 208 39.7431V30.964C208 29.8893 207.223 28.9717 206.162 28.7951V28.795Z" fill="#12254C"/>
<path d="M172.5 53.9689C167.768 53.9689 163.037 52.1677 159.434 48.5655C152.23 41.3611 152.23 29.639 159.434 22.4346C166.639 15.2302 178.361 15.2307 185.565 22.4346C192.77 29.639 192.77 41.3617 185.565 48.5661C181.963 52.1677 177.231 53.9689 172.5 53.9689ZM172.5 21.4277C168.894 21.4277 165.289 22.7997 162.544 25.5448C157.055 31.0344 157.055 39.9662 162.544 45.4557C168.034 50.9451 176.966 50.9451 182.455 45.4557C187.945 39.9662 187.945 31.0344 182.455 25.5444C179.711 22.8003 176.105 21.4277 172.5 21.4277Z" fill="#767BFF"/>
<path d="M172.499 17.0312V21.4277H172.5C176.105 21.4277 179.711 22.8003 182.456 25.5448C187.945 31.0344 187.945 39.9662 182.456 45.4557C179.711 48.2004 176.105 49.573 172.499 49.5724V53.9693H172.5C177.231 53.9693 181.963 52.1682 185.565 48.5661C192.77 41.3617 192.77 29.639 185.565 22.4346C181.963 18.8325 177.231 17.0312 172.499 17.0312Z" fill="#989CFF"/>
</g>
<defs>
<clipPath id="clip0_216_150">
<rect width="192" height="192" fill="white" transform="translate(-31 54)"/>
</clipPath>
<clipPath id="clip1_216_150">
<rect width="71" height="71" fill="white" transform="translate(137)"/>
</clipPath>
</defs>
</svg>
