<svg width="126" height="126" viewBox="0 0 126 126" fill="none" xmlns="http://www.w3.org/2000/svg">
<g clip-path="url(#clip0_1_85)">
<path d="M113.4 37.8V16.8001C113.4 12.161 109.639 8.40016 105 8.40016H21C16.3609 8.40016 12.6001 12.161 12.6001 16.8001V37.8L62.9998 48.2713L113.4 37.8Z" fill="#9B9FFF"/>
<path d="M105 8.39992H99.1689C103.808 8.39992 107.569 12.1607 107.569 16.7998V93.6675H113.4V16.8001C113.4 12.1607 109.639 8.39992 105 8.39992Z" fill="#6367D0"/>
<path d="M12.6001 37.8H113.4V93.6675H12.6001V37.8Z" fill="#F8F6F6"/>
<path d="M107.569 37.8H113.4V93.6675H107.569V37.8Z" fill="#E2E2E2"/>
<path d="M12.6001 27.4985H113.4V31.3014H12.6001V27.4985ZM98.7002 18.7014H77.7003C77.196 18.7014 76.7124 18.5011 76.3558 18.1445C75.9993 17.7879 75.7989 17.3043 75.7989 16.8001C75.7989 16.2958 75.9993 15.8122 76.3558 15.4556C76.7124 15.0991 77.196 14.8988 77.7003 14.8988H98.7002C99.2044 14.8988 99.6881 15.0991 100.045 15.4556C100.401 15.8122 100.602 16.2958 100.602 16.8001C100.602 17.3043 100.401 17.7879 100.045 18.1445C99.6881 18.5011 99.2044 18.7014 98.7002 18.7014Z" fill="#6367D0"/>
<path d="M85.2844 20.2845H89.7126V0.184078C89.2177 0.0617966 88.7097 -1.39424e-05 88.1999 2.35897e-09C84.7206 2.35897e-09 81.8999 2.82073 81.8999 6.3V14.6999C81.8999 17.1271 83.2731 19.2322 85.2844 20.2845Z" fill="#FEDF30"/>
<path d="M88.2001 3.58403e-06C87.1847 -0.0010821 86.1842 0.244505 85.2847 0.715644C87.2957 1.76794 88.6692 3.87303 88.6692 6.3V14.6999C88.6692 17.1271 87.2957 19.2322 85.2847 20.2843C86.1842 20.7554 87.1847 21.001 88.2001 20.9999C91.6794 20.9999 94.5001 18.1794 94.5001 14.6999V6.3C94.5001 2.82073 91.6794 3.58403e-06 88.2001 3.58403e-06Z" fill="#FEC526"/>
<path d="M50.4 18.7014H29.3999C28.8956 18.7014 28.412 18.5011 28.0554 18.1445C27.6989 17.7879 27.4985 17.3043 27.4985 16.8001C27.4985 16.2958 27.6989 15.8122 28.0554 15.4556C28.412 15.0991 28.8956 14.8988 29.3999 14.8988H50.4C50.9043 14.8988 51.3879 15.0991 51.7445 15.4556C52.101 15.8122 52.3013 16.2958 52.3013 16.8001C52.3013 17.3043 52.101 17.7879 51.7445 18.1445C51.3879 18.5011 50.9043 18.7014 50.4 18.7014Z" fill="#6367D0"/>
<path d="M36.9846 20.2845H41.4128V0.184078C40.9179 0.0617966 40.4099 -1.39424e-05 39.9001 2.35897e-09C36.4208 2.35897e-09 33.6001 2.82073 33.6001 6.3V14.6999C33.6001 17.1271 34.9733 19.2322 36.9846 20.2845Z" fill="#FEDF30"/>
<path d="M39.8998 3.58403e-06C38.8844 -0.0010821 37.8839 0.244505 36.9844 0.715644C38.9957 1.76794 40.3689 3.87303 40.3689 6.3V14.6999C40.3689 17.1271 38.9957 19.2322 36.9844 20.2843C37.8839 20.7554 38.8844 21.001 39.8998 20.9999C43.3794 20.9999 46.1998 18.1794 46.1998 14.6999V6.3C46.1998 2.82073 43.3791 3.58403e-06 39.8998 3.58403e-06Z" fill="#FEC526"/>
<path d="M122.062 126H3.9375C1.76277 126 0 124.237 0 122.062V96.3376C0 94.1629 1.76277 92.4001 3.9375 92.4001H122.062C124.237 92.4001 126 94.1629 126 96.3376V122.062C126 124.237 124.237 126 122.062 126Z" fill="#61DBDB"/>
<path d="M121.944 92.4001H116.113C118.353 92.4001 120.169 94.2163 120.169 96.4564V121.944C120.169 124.184 118.353 126 116.113 126H121.944C124.184 126 126 124.184 126 121.944V96.4564C126 94.216 124.184 92.4001 121.944 92.4001Z" fill="#4BC2C2"/>
<path d="M80.6834 100.364C80.5191 99.9325 80.2272 99.5609 79.8465 99.299C79.4658 99.0372 79.0144 98.8974 78.5523 98.8984H78.5501C78.0972 98.8979 77.6544 99.0326 77.2785 99.2852C76.9026 99.5378 76.6107 99.8969 76.4401 100.316L76.4228 100.36L70.1145 116.923C69.935 117.395 69.95 117.918 70.1563 118.378C70.3626 118.838 70.7433 119.197 71.2145 119.377C71.4478 119.466 71.6964 119.508 71.9461 119.501C72.1957 119.494 72.4415 119.437 72.6693 119.335C72.8972 119.233 73.1027 119.087 73.2741 118.905C73.4454 118.724 73.5793 118.51 73.6681 118.277L74.7728 115.376H82.2836L83.3762 118.271C83.5127 118.633 83.7561 118.944 84.0739 119.164C84.3918 119.384 84.769 119.502 85.1555 119.502C85.3784 119.502 85.6053 119.462 85.8263 119.379C86.06 119.291 86.274 119.157 86.4561 118.987C86.6382 118.816 86.7849 118.611 86.8878 118.383C86.9906 118.156 87.0477 117.91 87.0556 117.66C87.0635 117.411 87.0222 117.162 86.934 116.928L80.6834 100.364ZM76.2213 111.573L78.5456 105.471L80.8486 111.573H76.2213ZM99.4966 115.684C98.1204 115.692 96.6421 115.698 95.5259 115.699V100.8C95.5259 100.296 95.3255 99.8121 94.969 99.4556C94.6124 99.099 94.1288 98.8987 93.6245 98.8987C93.1203 98.8987 92.6367 99.099 92.2801 99.4556C91.9235 99.8121 91.7232 100.296 91.7232 100.8V117.586C91.7233 118.035 91.882 118.469 92.1714 118.812C92.4608 119.155 92.8622 119.385 93.3046 119.46C93.4412 119.484 93.5519 119.502 95.3927 119.502C96.2895 119.502 97.597 119.498 99.5177 119.487C100.022 119.485 100.505 119.281 100.859 118.923C101.214 118.564 101.411 118.08 101.409 117.575C101.403 116.525 100.537 115.682 99.4966 115.684ZM63.4913 98.8987C62.9871 98.8987 62.5035 99.099 62.1469 99.4556C61.7903 99.8121 61.59 100.296 61.59 100.8V117.6C61.59 118.104 61.7903 118.588 62.1469 118.945C62.5035 119.301 62.9871 119.501 63.4913 119.501C63.9956 119.501 64.4792 119.301 64.8358 118.945C65.1923 118.588 65.3927 118.104 65.3927 117.6V100.8C65.3927 100.55 65.3436 100.303 65.2481 100.072C65.1525 99.8416 65.0125 99.632 64.8359 99.4554C64.6594 99.2789 64.4497 99.1388 64.219 99.0433C63.9883 98.9477 63.741 98.8986 63.4913 98.8987ZM35.7711 98.8987H26.4931C25.9889 98.8987 25.5052 99.099 25.1487 99.4556C24.7921 99.8121 24.5918 100.296 24.5918 100.8C24.5918 101.304 24.7921 101.788 25.1487 102.144C25.5052 102.501 25.9889 102.701 26.4931 102.701H29.212V117.6C29.212 117.85 29.2611 118.097 29.3567 118.327C29.4522 118.558 29.5923 118.768 29.7688 118.944C29.9454 119.121 30.155 119.261 30.3857 119.356C30.6164 119.452 30.8636 119.501 31.1133 119.501C31.363 119.501 31.6102 119.452 31.8409 119.356C32.0716 119.261 32.2812 119.121 32.4577 118.944C32.6343 118.768 32.7743 118.558 32.8699 118.327C32.9654 118.097 33.0146 117.85 33.0146 117.6V102.701H35.7709C36.0205 102.701 36.2678 102.652 36.4985 102.557C36.7291 102.461 36.9388 102.321 37.1153 102.145C37.2919 101.968 37.432 101.758 37.5275 101.528C37.6231 101.297 37.6723 101.05 37.6723 100.8C37.6723 100.55 37.6231 100.303 37.5276 100.073C37.4321 99.8418 37.292 99.6322 37.1155 99.4556C36.939 99.2791 36.7294 99.139 36.4987 99.0435C36.268 98.9479 36.0208 98.8987 35.7711 98.8987ZM55.1554 105.166C55.1554 101.71 52.233 98.8984 48.6408 98.8984H44.1764L44.1737 98.8987L44.171 98.8984C43.6668 98.8984 43.1831 99.0987 42.8266 99.4553C42.47 99.8119 42.2697 100.295 42.2697 100.8V117.6C42.2697 118.104 42.47 118.588 42.8266 118.944C43.1831 119.301 43.6668 119.501 44.171 119.501C44.6753 119.501 45.1589 119.301 45.5155 118.944C45.872 118.588 46.0723 118.104 46.0723 117.6V112.318L51.8265 118.856C52.0048 119.059 52.2245 119.222 52.4708 119.333C52.7171 119.444 52.9843 119.502 53.2546 119.501C53.6203 119.501 53.9782 119.396 54.2854 119.197C54.5926 118.999 54.8361 118.716 54.9866 118.383C55.1372 118.05 55.1884 117.68 55.1342 117.318C55.08 116.957 54.9226 116.618 54.6809 116.344L50.1986 111.251C53.041 110.577 55.1554 108.105 55.1554 105.166ZM48.6408 107.631C48.0509 107.631 47.0191 107.635 46.0982 107.64C46.0935 106.738 46.0891 105.737 46.0891 105.166C46.0891 104.683 46.0866 103.645 46.0837 102.702H48.6408C50.1107 102.702 51.3525 103.83 51.3525 105.166C51.3528 106.502 50.1107 107.631 48.6408 107.631Z" fill="#F8F6F6"/>
<path d="M37.9314 83.9999H27.1689C26.6468 83.9999 26.146 83.7925 25.7768 83.4233C25.4076 83.0541 25.2002 82.5533 25.2002 82.0312V71.2688C25.2002 70.7466 25.4076 70.2458 25.7768 69.8766C26.146 69.5074 26.6468 69.3 27.1689 69.3H37.9314C38.4535 69.3 38.9543 69.5074 39.3235 69.8766C39.6927 70.2458 39.9001 70.7466 39.9001 71.2688V82.0312C39.9001 82.5533 39.6927 83.0541 39.3235 83.4233C38.9543 83.7925 38.4535 83.9999 37.9314 83.9999ZM68.3815 60.9001H57.6191C57.097 60.9001 56.5962 60.6927 56.227 60.3235C55.8578 59.9542 55.6504 59.4535 55.6504 58.9313V48.1689C55.6504 47.6468 55.8578 47.146 56.227 46.7768C56.5962 46.4076 57.097 46.2002 57.6191 46.2002H68.3815C68.9037 46.2002 69.4044 46.4076 69.7737 46.7768C70.1429 47.146 70.3503 47.6468 70.3503 48.1689V58.9313C70.3503 59.4535 70.1429 59.9542 69.7737 60.3235C69.4044 60.6927 68.9037 60.9001 68.3815 60.9001ZM68.3815 83.9999H57.6191C57.097 83.9999 56.5962 83.7925 56.227 83.4233C55.8578 83.0541 55.6504 82.5533 55.6504 82.0312V71.2688C55.6504 70.7466 55.8578 70.2458 56.227 69.8766C56.5962 69.5074 57.097 69.3 57.6191 69.3H68.3815C68.9037 69.3 69.4044 69.5074 69.7737 69.8766C70.1429 70.2458 70.3503 70.7466 70.3503 71.2688V82.0312C70.3503 82.5533 70.1429 83.0541 69.7737 83.4233C69.4044 83.7925 68.9037 83.9999 68.3815 83.9999ZM98.8315 60.9001H88.069C87.5469 60.9001 87.0461 60.6927 86.6769 60.3235C86.3077 59.9542 86.1003 59.4535 86.1003 58.9313V48.1689C86.1003 47.6468 86.3077 47.146 86.6769 46.7768C87.0461 46.4076 87.5469 46.2002 88.069 46.2002H98.8315C99.3536 46.2002 99.8544 46.4076 100.224 46.7768C100.593 47.146 100.8 47.6468 100.8 48.1689V58.9313C100.8 59.4535 100.593 59.9542 100.224 60.3235C99.8544 60.6927 99.3536 60.9001 98.8315 60.9001Z" fill="#CECECE"/>
<path d="M37.872 69.3H32.041C32.5789 69.3 33.0948 69.5137 33.4752 69.894C33.8555 70.2743 34.0693 70.7902 34.0693 71.3281V81.9716C34.0693 82.5096 33.8556 83.0255 33.4752 83.4058C33.0949 83.7862 32.579 83.9999 32.041 83.9999H37.872C38.1383 83.9999 38.4021 83.9475 38.6481 83.8455C38.8942 83.7436 39.1178 83.5942 39.3061 83.4058C39.4944 83.2175 39.6438 82.9939 39.7457 82.7478C39.8476 82.5017 39.9001 82.238 39.9 81.9716V71.3281C39.9 70.7902 39.6864 70.2743 39.306 69.894C38.9257 69.5137 38.4098 69.3 37.872 69.3ZM68.3219 46.1999H62.4909C62.7573 46.1999 63.021 46.2523 63.2671 46.3542C63.5131 46.4561 63.7367 46.6055 63.9251 46.7939C64.1134 46.9822 64.2628 47.2058 64.3647 47.4518C64.4666 47.6979 64.519 47.9616 64.519 48.228V58.8718C64.519 59.1381 64.4665 59.4018 64.3646 59.6479C64.2627 59.8939 64.1133 60.1175 63.925 60.3058C63.7367 60.4942 63.5131 60.6435 63.267 60.7455C63.021 60.8474 62.7573 60.8998 62.4909 60.8998H68.3219C68.8598 60.8998 69.3756 60.6862 69.756 60.3058C70.1364 59.9255 70.3501 59.4097 70.3502 58.8718V48.228C70.3501 47.6901 70.1364 47.1742 69.756 46.7939C69.3756 46.4136 68.8598 46.1999 68.3219 46.1999ZM68.3219 69.3H62.4909C62.7573 69.3 63.021 69.3524 63.2671 69.4543C63.5131 69.5562 63.7367 69.7056 63.9251 69.8939C64.1134 70.0823 64.2628 70.3059 64.3647 70.5519C64.4666 70.798 64.519 71.0617 64.519 71.3281V81.9716C64.519 82.5095 64.3053 83.0254 63.925 83.4058C63.5447 83.7861 63.0288 83.9999 62.4909 83.9999H68.3219C68.8598 83.9999 69.3757 83.7862 69.7561 83.4058C70.1365 83.0255 70.3502 82.5096 70.3502 81.9716V71.3281C70.3501 70.7902 70.1364 70.2743 69.756 69.894C69.3756 69.5137 68.8598 69.3 68.3219 69.3ZM98.7718 46.1999H92.9409C93.2072 46.1999 93.4709 46.2523 93.717 46.3542C93.9631 46.4561 94.1867 46.6055 94.375 46.7939C94.5633 46.9822 94.7127 47.2058 94.8146 47.4518C94.9165 47.6979 94.969 47.9616 94.9689 48.228V58.8718C94.9689 59.1381 94.9165 59.4018 94.8145 59.6479C94.7126 59.8939 94.5632 60.1175 94.3749 60.3058C94.1866 60.4942 93.963 60.6435 93.717 60.7455C93.4709 60.8474 93.2072 60.8998 92.9409 60.8998H98.7718C99.3097 60.8998 99.8256 60.6862 100.206 60.3058C100.586 59.9255 100.8 59.4097 100.8 58.8718V48.228C100.8 47.6901 100.586 47.1742 100.206 46.7939C99.8256 46.4136 99.3097 46.1999 98.7718 46.1999Z" fill="#ACACAC"/>
</g>
<defs>
<clipPath id="clip0_1_85">
<rect width="126" height="126" fill="white"/>
</clipPath>
</defs>
</svg>
