<svg width="89" height="77" viewBox="0 0 89 77" fill="none" xmlns="http://www.w3.org/2000/svg">
<path d="M81.4189 72.9458L80.9277 73.0392L81.4189 72.9458ZM81.7187 76.4134C81.947 76.5687 82.258 76.5095 82.4134 76.2812L84.9445 72.5605C85.0999 72.3322 85.0407 72.0212 84.8124 71.8659C84.584 71.7106 84.273 71.7697 84.1177 71.9981L81.8678 75.3053L78.5606 73.0554C78.3322 72.9 78.0212 72.9592 77.8659 73.1875C77.7106 73.4158 77.7697 73.7268 77.9981 73.8822L81.7187 76.4134ZM0.961533 1.49847C1.92338 1.57258 2.88113 1.66207 3.83453 1.7667L3.94361 0.772666C2.97949 0.666863 2.01099 0.576371 1.03836 0.501422L0.961533 1.49847ZM9.54204 2.58154C11.443 2.91644 13.3239 3.312 15.1824 3.76628L15.4198 2.79487C13.5402 2.33544 11.6381 1.9354 9.71553 1.59671L9.54204 2.58154ZM20.7358 5.3181C22.5743 5.89743 24.3876 6.53522 26.1733 7.22944L26.5356 6.29739C24.7296 5.59529 22.8958 4.95024 21.0364 4.36433L20.7358 5.3181ZM31.4757 9.49344C33.2211 10.3072 34.936 11.1765 36.6181 12.0991L37.099 11.2223C35.3978 10.2892 33.6635 9.41012 31.8983 8.58711L31.4757 9.49344ZM41.5791 15.0348C43.2021 16.0681 44.7895 17.1533 46.3389 18.2881L46.9298 17.4814C45.3628 16.3337 43.7575 15.2363 42.1162 14.1912L41.5791 15.0348ZM50.8763 21.8442C52.3499 23.0785 53.7829 24.3605 55.173 25.6881L55.8636 24.9649C54.4578 23.6224 53.0086 22.3259 51.5185 21.0776L50.8763 21.8442ZM59.2102 29.8033C60.5099 31.2173 61.7644 32.6746 62.9713 34.173L63.7501 33.5457C62.5295 32.0304 61.2608 30.5566 59.9465 29.1266L59.2102 29.8033ZM66.4389 38.7779C67.5424 40.3473 68.5964 41.9553 69.5987 43.5997L70.4525 43.0792C69.4389 41.4162 68.3729 39.79 67.257 38.2028L66.4389 38.7779ZM72.4366 48.6184C73.3245 50.3161 74.1595 52.0474 74.9391 53.8104L75.8536 53.406C75.0652 51.623 74.2208 49.8719 73.3227 48.1549L72.4366 48.6184ZM77.0971 59.1575C77.7546 60.9542 78.3563 62.7796 78.8999 64.6317L79.8594 64.3501C79.3096 62.477 78.7012 60.6309 78.0362 58.8138L77.0971 59.1575ZM80.3425 70.2137C80.5522 71.1496 80.7474 72.0915 80.9277 73.0392L81.9101 72.8523C81.7277 71.894 81.5304 70.9415 81.3184 69.9951L80.3425 70.2137ZM80.9277 73.0392L81.073 73.8028L82.0553 73.6159L81.9101 72.8523L80.9277 73.0392ZM81.3635 75.3299L81.5088 76.0934L82.4911 75.9065L82.3459 75.143L81.3635 75.3299ZM81.4189 72.9458L80.4365 73.1327L81.4189 72.9458ZM81.4375 76.8268C81.8941 77.1374 82.5161 77.0191 82.8268 76.5624L87.8891 69.1211C88.1998 68.6645 88.0814 68.0425 87.6248 67.7319C87.1681 67.4212 86.5461 67.5395 86.2355 67.9962L81.7356 74.6107L75.1212 70.1108C74.6645 69.8001 74.0425 69.9185 73.7319 70.3751C73.4212 70.8318 73.5396 71.4538 73.9962 71.7644L81.4375 76.8268ZM0.923118 1.99699C1.87958 2.07069 2.83196 2.15968 3.77999 2.26371L3.99816 0.275649C3.02868 0.169258 2.05479 0.0782632 1.07678 0.00289952L0.923118 1.99699ZM9.45529 3.07396C11.3455 3.40696 13.2157 3.80028 15.0637 4.25198L15.5386 2.30917C13.6484 1.84716 11.7356 1.44487 9.80228 1.10429L9.45529 3.07396ZM20.5856 5.79498C22.4136 6.37102 24.2166 7.00519 25.9921 7.69546L26.7168 5.83137C24.9007 5.12532 23.0565 4.47665 21.1866 3.88744L20.5856 5.79498ZM31.2644 9.9466C32.9999 10.7558 34.7051 11.6201 36.3776 12.5374L37.3394 10.7839C35.6288 9.84561 33.8847 8.96157 32.1096 8.13394L31.2644 9.9466ZM41.3106 15.4565C42.9243 16.484 44.5028 17.563 46.0434 18.6915L47.2252 17.078C45.6495 15.9239 44.0352 14.8203 42.3847 13.7695L41.3106 15.4565ZM50.5553 22.2275C52.0205 23.4548 53.4454 24.7296 54.8276 26.0497L56.2089 24.6033C54.7953 23.2533 53.338 21.9495 51.8396 20.6943L50.5553 22.2275ZM58.8421 30.1417C60.1344 31.5477 61.3818 32.9967 62.5819 34.4867L64.1394 33.2321C62.912 31.7083 61.6363 30.2263 60.3146 28.7883L58.8421 30.1417ZM66.0299 39.0655C67.1271 40.626 68.1751 42.2249 69.1717 43.8599L70.8795 42.819C69.8601 41.1466 68.7882 39.5113 67.666 37.9152L66.0299 39.0655ZM71.9936 48.8501C72.8764 50.5382 73.7066 52.2597 74.4818 54.0126L76.3109 53.2037C75.518 51.4107 74.6689 49.6498 73.7658 47.9232L71.9936 48.8501ZM76.6275 59.3293C77.2813 61.1158 77.8796 62.9309 78.4201 64.7725L80.3392 64.2093C79.7863 62.3257 79.1744 60.4692 78.5057 58.642L76.6275 59.3293ZM79.8546 70.323C80.0632 71.2537 80.2572 72.1903 80.4365 73.1327L82.4012 72.7589C82.2179 71.7952 82.0195 70.8375 81.8063 69.8857L79.8546 70.323ZM80.4365 73.1327L80.5818 73.8962L82.5465 73.5224L82.4012 72.7589L80.4365 73.1327ZM80.8723 75.4233L81.0176 76.1869L82.9823 75.813L82.8371 75.0495L80.8723 75.4233Z" fill="white"/>
</svg>
