<svg width="60" height="69" viewBox="0 0 60 69" fill="none" xmlns="http://www.w3.org/2000/svg">
<path d="M50.6419 69H9.35793C7.38742 69 5.79004 67.4026 5.79004 65.4321V50.3101C5.79004 48.3396 7.38742 46.7422 9.35793 46.7422H50.6419C52.6124 46.7422 54.2098 48.3396 54.2098 50.3101V65.4322C54.2098 67.4026 52.6124 69 50.6419 69Z" fill="#4BC2C2"/>
<path d="M50.6421 46.7422H47.0742C49.0447 46.7422 50.6421 48.3396 50.6421 50.3101V65.4321C50.6421 67.4026 49.0447 69 47.0742 69H50.6421C52.6126 69 54.21 67.4026 54.21 65.4321V50.3101C54.21 48.3396 52.6126 46.7422 50.6421 46.7422Z" fill="#F07281"/>
<path d="M17.2263 54.4191C17.4629 54.4191 17.6897 54.3251 17.857 54.1578C18.0243 53.9906 18.1182 53.7637 18.1182 53.5272C18.1182 53.2906 18.0243 53.0638 17.857 52.8965C17.6897 52.7292 17.4629 52.6353 17.2263 52.6353H13.5101C13.3929 52.6352 13.277 52.6583 13.1687 52.7031C13.0605 52.7479 12.9622 52.8136 12.8794 52.8965C12.7965 52.9793 12.7308 53.0776 12.686 53.1858C12.6412 53.294 12.6181 53.41 12.6182 53.5272V62.2552C12.6181 62.3723 12.6412 62.4883 12.686 62.5965C12.7308 62.7047 12.7965 62.8031 12.8794 62.8859C12.9622 62.9687 13.0605 63.0344 13.1687 63.0792C13.277 63.124 13.3929 63.1471 13.5101 63.1471H17.2263C17.4629 63.1471 17.6897 63.0531 17.857 62.8858C18.0243 62.7186 18.1182 62.4917 18.1182 62.2552C18.1182 62.0186 18.0243 61.7918 17.857 61.6245C17.6897 61.4572 17.4629 61.3633 17.2263 61.3633H14.4021V58.8032H16.9523C17.1889 58.8032 17.4158 58.7092 17.583 58.5419C17.7503 58.3747 17.8443 58.1478 17.8443 57.9113C17.8443 57.6747 17.7503 57.4479 17.583 57.2806C17.4158 57.1133 17.1889 57.0194 16.9523 57.0194H14.4021V54.4193H17.2263V54.4191ZM25.5592 53.305C25.5562 53.2969 25.5532 53.2889 25.5502 53.281C25.3846 52.8642 24.9896 52.5952 24.5437 52.5952H24.5425C24.0961 52.5956 23.7013 52.8658 23.5364 53.2833C23.5338 53.2898 23.5314 53.2964 23.529 53.303L20.3509 61.9474C20.2736 62.1684 20.2863 62.411 20.3862 62.6227C20.4861 62.8345 20.6653 62.9984 20.8851 63.0792C21.1048 63.16 21.3475 63.1512 21.5608 63.0546C21.7741 62.958 21.9409 62.7815 22.0252 62.563L22.602 60.9942H26.4616L27.0322 62.5604C27.2021 63.029 27.7226 63.2583 28.1756 63.0933C28.3979 63.0123 28.5789 62.8463 28.6788 62.6319C28.7787 62.4175 28.7893 62.1722 28.7084 61.9499L25.5592 53.305ZM23.2579 59.2103L24.5407 55.721L25.8118 59.2103H23.2579ZM35.7655 57.107C34.701 56.7001 33.7116 56.2565 33.4352 56.131C33.2025 55.9474 33.0922 55.6547 33.1391 55.3357C33.1675 55.1432 33.3016 54.6742 33.9355 54.4764C35.2055 54.0798 36.3714 55.0426 36.3974 55.0644C36.576 55.2182 36.8082 55.295 37.0433 55.2782C37.2784 55.2613 37.4973 55.152 37.6521 54.9743C37.8074 54.7959 37.8856 54.5631 37.8693 54.3271C37.853 54.0911 37.7436 53.8712 37.5653 53.7158C37.4878 53.6485 35.6452 52.0739 33.4042 52.7733C32.3106 53.1145 31.5328 53.9971 31.3743 55.0765C31.2246 56.0966 31.6505 57.0808 32.4859 57.6451C32.814 57.8669 33.5873 58.1843 35.1291 58.7734C36.0127 59.111 36.4582 59.6365 36.3514 60.2148C36.2487 60.7715 35.6394 61.3631 34.7126 61.3631C33.8312 61.3631 32.9795 60.9912 32.4346 60.3681C32.3575 60.2799 32.2637 60.2078 32.1587 60.1559C32.0538 60.1039 31.9396 60.0732 31.8227 60.0654C31.7058 60.0575 31.5886 60.0728 31.4776 60.1103C31.3666 60.1478 31.2641 60.2068 31.176 60.284C31.0878 60.3611 31.0157 60.4548 30.9637 60.5598C30.9118 60.6647 30.881 60.7789 30.8732 60.8958C30.8653 61.0127 30.8806 61.1299 30.9181 61.2409C30.9556 61.3519 31.0146 61.4544 31.0917 61.5426C31.9705 62.5472 33.3243 63.147 34.7126 63.147C36.3997 63.147 37.8268 62.05 38.1057 60.5385C38.3169 59.3928 37.8134 57.8895 35.7655 57.107ZM46.9767 52.8158C46.7785 52.6868 46.5371 52.6418 46.3056 52.6907C46.0742 52.7396 45.8717 52.8785 45.7426 53.0767L43.7285 56.1708L41.693 53.0536C41.6291 52.9552 41.5464 52.8703 41.4497 52.8039C41.353 52.7375 41.2441 52.6908 41.1293 52.6665C41.0145 52.6422 40.896 52.6409 40.7806 52.6624C40.6653 52.684 40.5554 52.7282 40.4571 52.7924C40.3589 52.8565 40.2742 52.9394 40.2081 53.0364C40.1419 53.1333 40.0956 53.2423 40.0716 53.3572C40.0477 53.4721 40.0467 53.5905 40.0686 53.7058C40.0905 53.8211 40.135 53.9309 40.1994 54.029L42.8371 58.0683L42.8268 62.2528C42.8265 62.37 42.8492 62.486 42.8938 62.5943C42.9384 62.7027 43.0038 62.8012 43.0865 62.8842C43.1691 62.9672 43.2673 63.0332 43.3754 63.0783C43.4835 63.1233 43.5994 63.1467 43.7166 63.147H43.7188C43.955 63.147 44.1815 63.0533 44.3488 62.8865C44.516 62.7197 44.6102 62.4934 44.6107 62.2572L44.621 58.0695L47.2377 54.0498C47.3667 53.8516 47.4117 53.6102 47.3627 53.3788C47.3138 53.1474 47.1749 52.9449 46.9767 52.8158Z" fill="white"/>
<path d="M39.0987 36.9113L42.017 33.0012C42.9186 31.7931 44.6852 31.5866 45.9627 32.5402C47.2401 33.4936 47.5448 35.2459 46.6432 36.454L40.3626 44.8706C36.9078 49.5004 30.8709 51.3887 25.3938 49.5529C23.296 48.8497 21.4055 47.6371 19.8916 46.0237C18.3777 44.4104 17.2877 42.4466 16.7192 40.3084L12.9241 26.0325C12.294 23.9633 15.2798 20.149 17.2331 22.6595L21.7429 28.7913C22.1432 29.3356 22.9441 29.3714 23.3357 28.8626L36.8627 10.9526C37.7643 9.7445 39.5309 9.53802 40.8085 10.4916C42.0861 11.445 42.3908 13.1973 41.489 14.4055L32.6001 26.3155L41.473 33.7302L39.0987 36.9113Z" fill="#FFDFCF"/>
<path d="M31.883 26.3153C32.3342 26.3153 32.7589 26.1023 33.0287 25.7407L41.4889 14.4053C42.3905 13.1972 42.0858 11.4449 40.8084 10.4913C39.7041 9.66715 38.2345 9.70968 37.2739 10.5165C38.5233 11.4755 38.8149 13.2076 37.9211 14.4052L30.7374 24.0303C30.0336 24.9734 30.7064 26.3153 31.883 26.3153ZM45.9624 32.5402C44.8581 31.716 43.3885 31.7585 42.4279 32.5653C43.6773 33.5242 43.9689 35.2564 43.0751 36.454L36.7946 44.8706C34.5933 47.8206 31.3437 49.6575 27.8586 50.1273C32.6056 50.768 37.4203 48.8134 40.3625 44.8706L46.643 36.454C47.5445 35.2459 47.2398 33.4936 45.9624 32.5402ZM21.7427 28.7912L17.2328 22.6594C16.1598 21.2802 14.7752 21.8099 13.8496 22.9104L17.5605 28.0936C18.5238 29.4393 20.3946 29.7513 21.7427 28.7912Z" fill="#FFCEBF"/>
<path d="M32.1943 26.8593L34.191 24.1841C35.0926 22.976 36.8592 22.7695 38.1368 23.723C39.4144 24.6764 39.7191 26.4287 38.8173 27.6369L36.473 30.7781L32.1943 26.8593Z" fill="#FFDFCF"/>
<path d="M38.1363 23.723C37.032 22.8988 35.5624 22.9413 34.6018 23.7482C35.8512 24.7071 36.1428 26.4393 35.249 27.6368L33.933 29.3864C33.7226 29.6661 33.6218 30.0131 33.6495 30.362C33.6773 30.7109 33.8317 31.0376 34.0837 31.2805C34.7053 31.8797 35.7115 31.7978 36.2279 31.1059L38.817 27.6369C39.7185 26.4287 39.4138 24.6764 38.1363 23.723Z" fill="#FFCEBF"/>
<path d="M35.2549 32.4096L38.0034 28.7269C38.905 27.5188 40.6716 27.3123 41.9492 28.2657C43.2268 29.2192 43.5315 30.9715 42.6297 32.1797L39.8305 35.9304L35.2549 32.4096Z" fill="#FFDFCF"/>
<path d="M41.9495 28.2659C40.8452 27.4417 39.3756 27.4842 38.415 28.2911C39.6644 29.2499 39.956 30.9822 39.0622 32.1797L37.6832 34.0209C37.217 34.6434 37.3332 35.5245 37.9448 36.0048C38.5774 36.5017 39.4952 36.3799 39.9764 35.7353L42.6301 32.1797C43.5317 30.9716 43.227 29.2193 41.9495 28.2659Z" fill="#FFCEBF"/>
<path d="M24.967 9.14302L24.5295 3.68099C24.4966 3.27026 24.6246 2.86298 24.8852 2.54874C25.1459 2.2345 25.5179 2.03903 25.9194 2.00532C26.7511 1.93489 27.4888 2.57164 27.5574 3.42723L27.9949 8.88926C28.0278 9.29999 27.8999 9.70727 27.6392 10.0215C27.3786 10.3357 27.0066 10.5312 26.605 10.5649C25.7789 10.6341 25.0349 10.0029 24.967 9.14302ZM14.5173 19C14.1362 18.9995 13.7692 18.8525 13.489 18.5881C13.2089 18.3238 13.0362 17.9613 13.0051 17.5728C12.9722 17.1621 13.1001 16.7548 13.3608 16.4405C13.6214 16.1263 13.9934 15.9308 14.395 15.8971L19.7347 15.4496C20.5656 15.3798 21.304 16.0159 21.3727 16.8715C21.4056 17.2823 21.2776 17.6895 21.017 18.0038C20.7563 18.318 20.3843 18.5135 19.9828 18.5472L14.6431 18.9947C14.6012 18.9982 14.5593 19 14.5173 19ZM21.1723 13.3114L16.3242 9.10342C16.017 8.83678 15.8259 8.45625 15.793 8.04552C15.7601 7.63479 15.8881 7.22752 16.1487 6.91329C16.4094 6.59907 16.7814 6.40364 17.183 6.36998C17.5845 6.33633 17.9827 6.46722 18.2899 6.73385L23.138 10.9418C23.2901 11.0738 23.4153 11.2352 23.5065 11.4167C23.5976 11.5982 23.6529 11.7963 23.6692 11.9997C23.6855 12.2031 23.6625 12.4077 23.6014 12.602C23.5404 12.7963 23.4425 12.9763 23.3135 13.1319C22.7686 13.7891 21.8088 13.864 21.1723 13.3114Z" fill="#4BC2C2"/>
</svg>
