<svg width="352" height="328" viewBox="0 0 352 328" fill="none" xmlns="http://www.w3.org/2000/svg">
<g clip-path="url(#clip0_216_149)">
<path d="M165.603 192.502L196.953 150.789L188.648 95.0171L136.009 82.0554L124.245 112.636C135.178 114.893 144.611 122.719 148.454 133.768C153.284 147.667 148.225 163.168 136.141 171.46C120.086 182.489 112.703 202.614 117.775 221.542L119.954 229.674C122.792 240.266 133.679 246.551 144.266 243.715L172.312 236.2L165.603 192.502ZM100.231 169.81L72.1858 177.325C61.5952 180.163 50.7093 173.878 47.8715 163.287C47.0016 160.041 46.3523 156.712 45.9413 153.392C41.3173 116.038 66.6851 81.0048 103.697 73.6464L131.746 66.1305L117.19 91.6259M177.282 254.744L149.237 262.259C138.646 265.097 132.361 275.983 135.199 286.573L135.241 286.732C138.079 297.323 148.965 303.608 159.556 300.77L184.19 294.169" fill="#767BFF"/>
<path d="M172.312 236.197C161.722 239.035 150.836 232.75 147.998 222.159L145.819 214.025C140.747 195.097 148.129 174.973 164.189 163.947C176.269 155.653 181.332 140.153 176.5 126.254C171.208 111.034 155.298 101.928 139.491 105.074C122.769 108.391 111.309 124.18 113.391 141C113.58 142.517 113.874 144.019 114.27 145.496C117.107 156.087 110.822 166.973 100.232 169.811C89.6412 172.648 78.7553 166.363 75.9175 155.773C75.0476 152.526 74.3983 149.197 73.9873 145.878C69.3632 108.524 94.7305 73.49 131.742 66.1315C166.877 59.1406 202.242 79.3824 214.004 113.215C224.693 143.966 213.451 178.287 186.663 196.68C184.447 198.201 183.446 201.042 184.171 203.749L186.351 211.883C189.189 222.473 182.904 233.359 172.312 236.197ZM187.601 293.256C177.011 296.093 166.125 289.808 163.287 279.218L163.244 279.059C160.407 268.468 166.692 257.582 177.282 254.745C187.873 251.907 198.759 258.192 201.597 268.782L201.639 268.941C204.477 279.532 198.192 290.418 187.601 293.256Z" fill="#CCCEFF"/>
<path d="M90.9389 141.338C91.3521 144.676 91.9977 147.981 92.8707 151.23C94.8931 158.777 101.002 164.142 108.179 165.566C105.892 167.575 103.172 169.027 100.231 169.81C89.6468 172.646 78.7557 166.367 75.9171 155.773C75.0471 152.526 74.4019 149.198 73.9945 145.878C69.3638 108.519 94.738 73.488 131.746 66.1283C133.072 65.8653 134.398 65.6433 135.725 65.4623C105.947 77.5065 86.8798 108.527 90.9389 141.338ZM181.141 159.402C165.083 170.429 157.696 190.559 162.767 209.485L164.946 217.618C166.969 225.165 173.087 230.528 180.264 231.951C177.977 233.96 175.257 235.413 172.316 236.196C161.722 239.034 150.841 232.751 148.002 222.158L145.823 214.026C140.752 195.099 148.13 174.972 164.197 163.942C176.274 155.645 181.332 140.154 176.499 126.255C171.959 113.181 159.584 104.619 146.166 104.467C149.344 102.58 152.82 101.249 156.445 100.532C172.254 97.3848 188.162 106.488 193.452 121.712C198.285 135.611 193.218 151.105 181.141 159.402ZM195.552 289.009C193.266 291.018 190.545 292.47 187.604 293.253C177.01 296.092 166.129 289.81 163.29 279.216L163.247 279.053C160.411 268.469 166.69 257.578 177.284 254.739C180.33 253.923 183.394 253.862 186.29 254.441C180.788 259.272 178.171 266.975 180.191 274.513L180.234 274.676C182.257 282.223 188.375 287.585 195.552 289.009Z" fill="#A6A9FF"/>
</g>
<g clip-path="url(#clip1_216_149)">
<path d="M292.586 74.3075L314.59 64.9342L324.075 40.8928L306.151 23.6843L294.473 33.127C298.295 36.5285 300.246 41.7965 299.239 47.063C297.972 53.6872 292.411 58.6808 285.714 59.2031C276.813 59.9015 269.271 66.198 266.946 74.8736L265.947 78.6008C264.646 83.4556 267.527 88.4457 272.38 89.7459L285.235 93.1904L292.586 74.3075ZM271.838 50.3185L258.983 46.8742C254.129 45.5735 251.248 40.5839 252.549 35.7297C252.948 34.2417 253.453 32.7714 254.05 31.3596C260.775 15.4726 278.874 7.37988 295.252 12.9411L308.108 16.3861L296.487 23.1704M282.958 101.691L270.103 98.2461C265.249 96.9455 260.259 99.8262 258.959 104.68L258.939 104.753C257.639 109.607 260.519 114.597 265.373 115.898L276.665 118.923" fill="#4BC2C2"/>
<path d="M285.236 93.1892C280.381 91.8885 277.501 86.8989 278.801 82.0447L279.8 78.3166C282.125 69.6409 289.667 63.3445 298.569 62.6484C305.265 62.1246 310.827 57.132 312.094 50.5075C313.482 43.2535 309.253 35.993 302.258 33.619C294.86 31.1034 286.692 34.7446 283.664 41.898C283.391 42.5436 283.164 43.2072 282.982 43.8842C281.682 48.7384 276.692 51.6191 271.838 50.3185C266.984 49.0178 264.103 44.0282 265.404 39.174C265.802 37.686 266.307 36.2156 266.905 34.8039C273.63 18.9167 291.728 10.8239 308.106 16.3852C323.655 21.6623 333.054 37.8019 329.969 53.9271C327.165 68.5831 314.836 79.6302 299.988 80.7919C298.76 80.8879 297.712 81.7861 297.379 83.0268L296.38 86.755C295.08 91.6092 290.09 94.4899 285.236 93.1892ZM278.228 119.342C273.374 118.041 270.493 113.052 271.794 108.197L271.813 108.125C273.114 103.27 278.103 100.39 282.958 101.69C287.812 102.991 290.693 107.981 289.392 112.835L289.372 112.908C288.072 117.762 283.082 120.643 278.228 119.342Z" fill="#A0FFFF"/>
<path d="M274.674 36.8865C274.073 38.3063 273.572 39.7663 273.174 41.2559C272.247 44.7153 273.442 48.2446 275.965 50.4547C274.597 50.7282 273.184 50.6814 271.837 50.3181C266.986 49.0183 264.102 44.0295 265.403 39.1739C265.802 37.6857 266.309 36.2168 266.908 34.8057C273.632 18.9148 291.732 10.8248 308.108 16.3847C308.695 16.5841 309.272 16.8 309.841 17.0323C295.26 14.9888 280.582 22.9324 274.674 36.8865ZM306.339 64.7292C297.438 65.426 289.893 71.7236 287.568 80.3986L286.569 84.126C285.643 87.5854 286.842 91.1161 289.365 93.326C287.997 93.5994 286.584 93.5527 285.237 93.1894C280.382 91.8883 277.502 86.9006 278.803 82.0452L279.802 78.3176C282.126 69.6426 289.668 63.3441 298.573 62.6482C305.269 62.1224 310.826 57.1324 312.093 50.5078C313.288 44.2778 310.337 38.043 305.046 34.9079C306.74 34.8867 308.425 35.1552 310.028 35.7017C317.025 38.0752 321.253 45.3345 319.864 52.5899C318.597 59.2145 313.035 64.2035 306.339 64.7292ZM282.357 119.478C280.989 119.752 279.576 119.705 278.23 119.342C273.374 118.041 270.494 113.053 271.795 108.197L271.815 108.123C273.115 103.272 278.104 100.388 282.96 101.689C284.356 102.063 285.586 102.741 286.603 103.634C283.312 104.291 280.507 106.749 279.582 110.204L279.562 110.279C278.635 113.738 279.834 117.268 282.357 119.478Z" fill="#76E4E4"/>
</g>
<defs>
<clipPath id="clip0_216_149">
<rect width="234" height="234" fill="white" transform="translate(0 101.269) rotate(-15)"/>
</clipPath>
<clipPath id="clip1_216_149">
<rect width="107.254" height="107.254" fill="white" transform="translate(247.76 0.140625) rotate(15)"/>
</clipPath>
</defs>
</svg>
