<svg width="156" height="156" viewBox="0 0 156 156" fill="none" xmlns="http://www.w3.org/2000/svg">
<path d="M78.0003 35.7651C70.5406 35.7653 63.2431 37.942 57.0024 42.0285C50.7616 46.115 45.8488 51.9336 42.8662 58.771C39.8837 65.6084 38.9609 73.1675 40.2112 80.5217C41.4614 87.8758 44.8302 94.7053 49.9047 100.173L45.9398 114.965C45.7054 115.838 45.7352 116.761 46.0256 117.618C46.3159 118.474 46.8537 119.225 47.5709 119.775C48.2881 120.326 49.1524 120.651 50.0546 120.71C50.9568 120.77 51.8563 120.56 52.6393 120.108L68.1512 111.15C73.4219 112.551 78.9308 112.811 84.3101 111.914C89.6894 111.016 94.8153 108.981 99.3454 105.944C103.875 102.908 107.706 98.9395 110.58 94.3046C113.454 89.6698 115.306 84.475 116.013 79.0673C116.719 73.6595 116.264 68.1633 114.677 62.9456C113.09 57.7279 110.408 52.9088 106.81 48.8103C103.212 44.7117 98.7811 41.428 93.813 39.1784C88.8449 36.9289 83.454 35.7652 78.0003 35.7651Z" fill="#2EC4B6"/>
<path d="M78 35.7651V112.427C88.166 112.427 97.9157 108.389 105.104 101.2C112.293 94.0119 116.331 84.2622 116.331 74.0962C116.331 63.9302 112.293 54.1805 105.104 46.992C97.9157 39.8036 88.166 35.7651 78 35.7651Z" fill="#2AB5A4"/>
<path d="M153.502 77.3522C153.551 75.4872 153.603 73.5586 153.518 71.5385C153.265 65.9181 150.846 60.6136 146.769 56.7365C142.692 52.8594 137.273 50.7104 131.647 50.7399C122.61 30.0663 101.967 15.5808 78.0002 15.5808C54.0334 15.5808 33.39 30.0663 24.3541 50.7399C18.7266 50.7097 13.3058 52.8594 9.22843 56.7383C5.15107 60.6172 2.73377 65.924 2.48337 71.5461C2.39836 73.557 2.44985 75.4872 2.49952 77.3522C2.55223 79.3327 2.60677 81.3814 2.50927 83.6776C2.27053 89.4372 4.32439 95.0568 8.22092 99.3051C12.1174 103.553 17.539 106.084 23.2978 106.343C23.6165 106.357 23.9344 106.363 24.2515 106.364C27.0052 106.365 29.734 105.841 32.2909 104.819C32.9409 104.616 33.5373 104.271 34.0366 103.808C34.536 103.345 34.9257 102.777 35.1772 102.144C35.4287 101.511 35.5357 100.831 35.4904 100.151C35.4451 99.472 35.2486 98.8114 34.9152 98.2178C30.7896 90.8478 28.624 82.5425 28.6256 74.0963C28.6256 46.8713 50.7763 24.7217 78.0002 24.7217C105.224 24.7217 127.375 46.8725 127.375 74.0963C127.409 85.6205 123.397 96.7911 116.039 105.66C108.681 114.53 98.4427 120.535 87.1103 122.629C85.9169 119.927 83.817 117.727 81.1735 116.409C78.53 115.091 75.5092 114.738 72.6331 115.412C69.757 116.085 67.2064 117.741 65.4222 120.095C63.638 122.449 62.7324 125.353 62.8618 128.304C62.9913 131.255 64.1477 134.068 66.1311 136.257C68.1145 138.445 70.8004 139.873 73.7243 140.291C76.6483 140.71 79.6267 140.094 82.1446 138.549C84.6625 137.005 86.5618 134.629 87.514 131.833C95.5639 130.502 103.247 127.505 110.072 123.033C116.896 118.561 122.712 112.714 127.146 105.865C128.659 106.195 130.202 106.362 131.75 106.363C132.068 106.363 132.387 106.357 132.706 106.343C138.464 106.083 143.884 103.552 147.78 99.3045C151.675 95.0567 153.729 89.4382 153.491 83.6794C153.394 81.382 153.448 79.3333 153.502 77.3522Z" fill="#2EA8E6"/>
<path d="M153.502 77.3522C153.551 75.4872 153.603 73.5586 153.518 71.5385C153.259 65.7797 150.728 60.3582 146.479 56.4622C142.23 52.5663 136.61 50.5135 130.851 50.7539C129.854 50.7992 128.862 50.9112 127.881 51.0891C127.224 51.2059 126.601 51.4652 126.055 51.8487C125.509 52.2322 125.053 52.7306 124.72 53.3089C124.387 53.8872 124.185 54.5313 124.128 55.1961C124.071 55.8609 124.16 56.5302 124.388 57.1569C126.822 63.837 127.786 70.9632 127.216 78.0497C126.645 85.1362 124.553 92.0164 121.083 98.2212C120.75 98.8148 120.554 99.4752 120.509 100.154C120.465 100.833 120.572 101.514 120.824 102.146C121.075 102.778 121.465 103.346 121.964 103.808C122.463 104.271 123.059 104.616 123.709 104.819C126.267 105.841 128.996 106.365 131.75 106.363C132.068 106.363 132.387 106.357 132.706 106.343C138.464 106.083 143.884 103.552 147.78 99.3045C151.675 95.0567 153.729 89.4382 153.491 83.6794C153.394 81.382 153.448 79.3333 153.502 77.3522Z" fill="#176F93"/>
<path d="M124.428 57.2907C124.413 57.2462 124.404 57.1993 124.387 57.1557C124.159 56.529 124.07 55.8597 124.127 55.1949C124.184 54.5301 124.386 53.8859 124.719 53.3076C125.052 52.7293 125.508 52.2309 126.054 51.8474C126.6 51.464 127.223 51.2047 127.88 51.0879C128.861 50.91 129.853 50.798 130.85 50.7527C131.116 50.7411 131.381 50.7405 131.646 50.7387C122.61 30.0663 101.967 15.5811 78 15.5808V24.7214C99.3281 24.7217 117.538 38.3145 124.428 57.2907Z" fill="#1794C6"/>
<path d="M34.9152 98.2178C31.4456 92.0131 29.3545 85.1331 28.7846 78.047C28.2147 70.9609 29.1793 63.8353 31.6127 57.1557C31.8417 56.529 31.9306 55.8597 31.8733 55.1949C31.8159 54.5301 31.6137 53.8859 31.2809 53.3076C30.948 52.7293 30.4925 52.2309 29.9465 51.8475C29.4004 51.464 28.777 51.2047 28.1201 51.0879C27.1355 50.9096 26.1401 50.7976 25.1405 50.7527C19.3808 50.514 13.7614 52.5687 9.51426 56.4665C5.26709 60.3643 2.7387 65.7871 2.48337 71.5461C2.39836 73.557 2.44985 75.4872 2.49952 77.3522C2.55223 79.3327 2.60677 81.3814 2.50927 83.6776C2.27053 89.4373 4.32439 95.0568 8.22092 99.3051C12.1174 103.553 17.539 106.084 23.2978 106.343C23.6165 106.357 23.9344 106.363 24.2515 106.364C27.0052 106.365 29.734 105.841 32.2909 104.819C32.9409 104.616 33.5373 104.271 34.0366 103.808C34.536 103.345 34.9257 102.777 35.1772 102.144C35.4287 101.511 35.5357 100.831 35.4904 100.151C35.4451 99.472 35.2486 98.8114 34.9152 98.2178Z" fill="#176F93"/>
<path d="M28.6257 74.096C28.619 68.3177 29.6297 62.5833 31.6116 57.1554C31.8405 56.5287 31.9295 55.8594 31.8721 55.1946C31.8148 54.5298 31.6126 53.8856 31.2797 53.3073C30.9469 52.729 30.4914 52.2306 29.9454 51.8471C29.3993 51.4637 28.7759 51.2044 28.119 51.0876C27.1344 50.9093 26.139 50.7973 25.1394 50.7524C23.9011 50.701 22.6607 50.7554 21.4317 50.9148C18.3032 55.6349 16.5518 61.1333 16.3739 66.7933C16.2791 69.3786 16.3364 71.8557 16.3918 74.2514C16.4506 76.7959 16.5116 79.4268 16.4028 82.3759C16.043 92.1159 20.0825 100.923 26.4867 106.245C28.4782 106.04 30.4315 105.559 32.291 104.818C32.941 104.615 33.5374 104.27 34.0367 103.807C34.5361 103.344 34.9258 102.776 35.1773 102.143C35.4288 101.51 35.5358 100.83 35.4905 100.15C35.4451 99.4711 35.2486 98.8105 34.9153 98.2169C30.7899 90.8471 28.6243 82.542 28.6257 74.096ZM127.375 74.096C127.382 68.3177 126.371 62.5833 124.389 57.1554C124.16 56.5287 124.071 55.8594 124.128 55.1946C124.186 54.5298 124.388 53.8856 124.721 53.3073C125.054 52.729 125.509 52.2306 126.055 51.8471C126.601 51.4637 127.225 51.2044 127.882 51.0876C128.866 50.9093 129.862 50.7973 130.861 50.7524C132.1 50.701 133.34 50.7554 134.569 50.9148C137.697 55.6349 139.449 61.1333 139.627 66.7933C139.721 69.3786 139.664 71.8557 139.609 74.2514C139.55 76.7959 139.489 79.4268 139.598 82.3759C139.96 92.1146 135.92 100.922 129.517 106.244C127.525 106.039 125.572 105.559 123.712 104.817C123.062 104.615 122.466 104.269 121.966 103.807C121.467 103.344 121.077 102.775 120.826 102.143C120.574 101.51 120.467 100.829 120.512 100.15C120.558 99.4708 120.754 98.8102 121.088 98.2166C125.212 90.8466 127.377 82.5417 127.375 74.096Z" fill="#0D647F"/>
<path d="M62.774 78.6664C61.5618 78.6675 60.3989 78.1871 59.541 77.3309C58.683 76.4746 58.2004 75.3126 58.1992 74.1005C58.198 72.8883 58.6784 71.7254 59.5347 70.8675C60.391 70.0095 61.553 69.5269 62.7651 69.5257H62.774C63.9861 69.5257 65.1485 70.0072 66.0056 70.8643C66.8627 71.7214 67.3443 72.8839 67.3443 74.096C67.3443 75.3082 66.8627 76.4706 66.0056 77.3277C65.1485 78.1848 63.9861 78.6664 62.774 78.6664ZM78.0004 78.666C77.8498 78.6666 77.6993 78.6594 77.5495 78.6444C77.4012 78.6298 77.2537 78.6075 77.1077 78.5777C76.9614 78.5472 76.8152 78.5107 76.672 78.468C76.5293 78.4245 76.3889 78.3736 76.2515 78.3157C76.1131 78.2602 75.9778 78.1971 75.8463 78.1267C75.7152 78.0567 75.5873 77.9774 75.4624 77.8949C75.3381 77.8127 75.2182 77.7243 75.1028 77.6301C74.987 77.5357 74.8743 77.4318 74.7677 77.3285C74.661 77.2252 74.5605 77.1088 74.466 76.9933C74.3716 76.8781 74.2831 76.7581 74.201 76.6338C74.1187 76.5089 74.0395 76.3809 73.9694 76.2499C73.8993 76.1189 73.8384 75.9817 73.7805 75.8446C73.7225 75.7072 73.6717 75.5669 73.6281 75.4242C73.5855 75.2807 73.5489 75.1344 73.5184 74.9882C73.488 74.8419 73.4667 74.6929 73.4514 74.5467C73.4367 74.3968 73.4296 74.2463 73.4301 74.0957C73.4296 73.9462 73.4367 73.7967 73.4514 73.6478C73.4667 73.4985 73.491 73.3492 73.5184 73.203C73.5459 73.0567 73.5855 72.9105 73.6281 72.7703C73.6711 72.6265 73.722 72.4851 73.7805 72.3468C73.8384 72.2097 73.9024 72.0757 73.9694 71.9446C74.04 71.8118 74.1173 71.6827 74.201 71.5577C74.2832 71.4358 74.3716 71.3139 74.466 71.1982C74.5605 71.0824 74.6641 70.9696 74.7677 70.863C74.8713 70.7564 74.987 70.6589 75.1028 70.5617C75.2186 70.4703 75.3374 70.3788 75.4624 70.2966C75.5873 70.2143 75.7152 70.1381 75.8463 70.0681C75.9773 69.998 76.1144 69.934 76.2515 69.8761C76.389 69.8192 76.5294 69.7692 76.672 69.7265C76.9582 69.6399 77.252 69.5808 77.5495 69.5501C77.8483 69.5196 78.1495 69.5196 78.4483 69.5501C78.5978 69.5631 78.7464 69.5855 78.8931 69.6171C79.0396 69.6442 79.1841 69.6808 79.3258 69.7265C79.4694 69.7692 79.6107 69.8192 79.7493 69.8761C79.8864 69.934 80.0205 69.998 80.1515 70.0681C80.2833 70.1377 80.4114 70.214 80.5354 70.2966C80.6603 70.3788 80.7822 70.4703 80.898 70.5617C81.0138 70.6589 81.1265 70.7597 81.2301 70.863C81.3337 70.9663 81.4373 71.0827 81.5348 71.1982C81.6262 71.3139 81.7176 71.4358 81.7999 71.5577C81.8825 71.6827 81.9588 71.8119 82.0284 71.9446C82.0985 72.0757 82.1624 72.2097 82.2203 72.3468C82.2782 72.4839 82.327 72.6268 82.3727 72.7703C82.4184 72.9138 82.4519 73.0567 82.4824 73.203C82.5128 73.3492 82.5342 73.4985 82.5494 73.6478C82.5646 73.7971 82.5707 73.9464 82.5707 74.0957C82.5707 74.245 82.5616 74.3974 82.5494 74.5467C82.5372 74.696 82.5098 74.8419 82.4824 74.9882C82.4549 75.1344 82.4153 75.2807 82.3727 75.4242C82.33 75.5677 82.2782 75.7075 82.2203 75.8446C82.1624 75.9817 82.0985 76.1189 82.0284 76.2499C81.9583 76.3809 81.8821 76.5089 81.7999 76.6338C81.7176 76.7587 81.6262 76.8775 81.5348 76.9933C81.4373 77.1088 81.3367 77.2218 81.2301 77.3285C81.1235 77.4351 81.0138 77.5357 80.898 77.6301C80.7816 77.7244 80.6606 77.8127 80.5354 77.8949C80.4115 77.9787 80.2834 78.0561 80.1515 78.1267C80.021 78.1971 79.8867 78.2601 79.7493 78.3157C79.6108 78.3736 79.4695 78.4245 79.3258 78.468C79.1856 78.5107 79.0394 78.5472 78.8931 78.5777C78.7461 78.6077 78.5976 78.63 78.4483 78.6444C78.2995 78.6594 78.15 78.6666 78.0004 78.666Z" fill="#E6E9F2"/>
<path d="M82.4823 73.203C82.4518 73.0567 82.4152 72.9105 82.3726 72.7703C82.3299 72.6302 82.2781 72.4839 82.2202 72.3468C82.1623 72.2097 82.0984 72.0757 82.0283 71.9446C81.9587 71.8119 81.8824 71.6827 81.7998 71.5577C81.7175 71.4358 81.6261 71.3139 81.5347 71.1982C81.4372 71.0824 81.3366 70.9696 81.23 70.863C81.1234 70.7564 81.0137 70.6592 80.8979 70.5617C80.7821 70.4703 80.6602 70.3788 80.5353 70.2966C80.4113 70.214 80.2832 70.1377 80.1514 70.0681C80.0204 69.998 79.8863 69.934 79.7492 69.8761C79.6106 69.8192 79.4693 69.7692 79.3257 69.7265C79.184 69.6808 79.0395 69.6442 78.893 69.6171C78.7463 69.5855 78.5977 69.5631 78.4482 69.5501C78.2993 69.5348 78.1497 69.5272 78 69.5272V78.6664C78.1496 78.6669 78.2991 78.6597 78.4479 78.6447C78.5972 78.6303 78.7457 78.608 78.8927 78.578C79.039 78.5475 79.1852 78.511 79.3254 78.4683C79.4691 78.4248 79.6104 78.3739 79.7489 78.316C79.8863 78.2604 80.0206 78.1974 80.1511 78.127C80.2829 78.0564 80.411 77.9791 80.535 77.8955C80.6599 77.8129 80.7818 77.7246 80.8976 77.6304C81.0134 77.5363 81.1261 77.4321 81.2297 77.3288C81.3333 77.2255 81.4369 77.1091 81.5344 76.9936C81.6258 76.8778 81.7172 76.759 81.7995 76.6341C81.8817 76.5092 81.9579 76.3812 82.028 76.2502C82.098 76.1192 82.162 75.9821 82.2199 75.8449C82.2778 75.7078 82.3266 75.5646 82.3723 75.4245C82.418 75.2843 82.4515 75.1347 82.482 74.9885C82.5124 74.8422 82.5337 74.6932 82.549 74.547C82.5642 74.4007 82.5703 74.2453 82.5703 74.096C82.5703 73.9467 82.5612 73.7974 82.549 73.6481C82.5368 73.4988 82.5094 73.3492 82.4823 73.203ZM93.2344 78.6664C92.0223 78.6675 90.8593 78.187 90.0014 77.3307C89.1435 76.4745 88.6609 75.3124 88.6598 74.1003C88.6587 72.8882 89.1391 71.7253 89.9954 70.8674C90.8517 70.0095 92.0137 69.5269 93.2258 69.5257H93.2344C94.4465 69.5257 95.609 70.0072 96.4661 70.8643C97.3232 71.7214 97.8047 72.8839 97.8047 74.096C97.8047 75.3082 97.3232 76.4706 96.4661 77.3277C95.609 78.1848 94.4465 78.6664 93.2344 78.6664Z" fill="#CFD7E6"/>
<path d="M78.458 140.026C85.2674 138.412 89.4785 131.583 87.8638 124.773C86.2491 117.964 79.4201 113.753 72.6107 115.368C65.8013 116.982 61.5902 123.811 63.2049 130.621C64.8196 137.43 71.6486 141.641 78.458 140.026Z" fill="#176F93"/>
<path d="M75.5215 115.076V140.419C78.8822 140.419 82.1053 139.084 84.4817 136.708C86.8581 134.331 88.1931 131.108 88.1931 127.748C88.1931 124.387 86.8581 121.164 84.4817 118.787C82.1053 116.411 78.8822 115.076 75.5215 115.076Z" fill="#0D647F"/>
<path d="M123.709 104.819C123.108 104.631 122.553 104.322 122.077 103.909C121.601 103.497 121.216 102.991 120.945 102.423C120.674 101.855 120.523 101.237 120.502 100.607C120.481 99.9782 120.591 99.3515 120.823 98.7666C117.273 104.953 112.418 110.292 106.596 114.413C100.774 118.534 94.1251 121.337 87.1104 122.629C88.3996 125.537 88.5436 128.825 87.5138 131.834C95.5638 130.503 103.247 127.506 110.072 123.034C116.897 118.562 122.712 112.714 127.146 105.865C125.974 105.611 124.824 105.261 123.709 104.819Z" fill="#1794C6"/>
</svg>
