<svg width="60" height="60" viewBox="0 0 60 60" fill="none" xmlns="http://www.w3.org/2000/svg">
<g clip-path="url(#clip0_1_155)">
<path d="M30.2176 0H4.93371C2.20887 0 0 2.20887 0 4.93371C0 7.65856 2.20887 9.86742 4.93371 9.86742H35.7589L30.2176 0Z" fill="#EFBCAA"/>
<path d="M3.97168 14.8011C3.97168 17.526 6.18055 19.7349 8.90539 19.7349H21.1984C22.1691 19.7349 22.9562 18.9478 22.9562 17.977V9.86743H8.90539C6.18055 9.86743 3.97168 12.0763 3.97168 14.8011Z" fill="#E0A089"/>
<path d="M38.4415 32.9399C37.6365 32.9399 36.8227 32.7673 36.0471 32.4148C33.9575 31.4651 32.6595 29.4524 32.6595 27.1621V27.0076C32.6595 25.3634 33.3566 23.8016 34.5722 22.7229C35.9327 21.5155 36.713 19.7854 36.713 17.9759C36.713 16.226 36.0129 14.5945 34.7418 13.382C33.472 12.171 31.8066 11.5496 30.054 11.6326C26.8461 11.7843 24.1964 14.4144 24.0216 17.6203C23.9166 19.5473 24.6795 21.3948 26.1146 22.6889C27.3545 23.8068 28.0655 25.3811 28.0655 27.0081V27.1623C28.0655 29.4525 26.7675 31.4651 24.6783 32.4146C22.6054 33.3568 20.2559 33.0149 18.5462 31.5225C14.6318 28.1055 12.3867 23.168 12.3867 17.9757C12.3867 8.06391 20.4506 0 30.3626 0H58.2421C59.2129 0 59.9999 0.787031 59.9999 1.75781V22.0317C59.9999 23.0025 59.2129 23.7895 58.2421 23.7895H47.3764C46.3604 26.7718 44.5811 29.425 42.1777 31.5229C41.1082 32.4566 39.7876 32.9399 38.4415 32.9399Z" fill="#FFD8CB"/>
<path d="M58.2422 0H30.3627C30.2414 0 30.1207 0.00222656 30 0.00457031V11.6364C30.0182 11.6353 30.036 11.6333 30.0541 11.6325C31.8068 11.5495 33.4723 12.1709 34.7419 13.3819C36.0131 14.5944 36.7131 16.2259 36.7131 17.9757C36.7131 19.7852 35.9329 21.5155 34.5723 22.7228C33.3567 23.8015 32.6596 25.3632 32.6596 27.0075V27.162C32.6596 29.4523 33.9577 31.465 36.0472 32.4146C36.8227 32.7672 37.6365 32.9398 38.4416 32.9398C39.7877 32.9398 41.1083 32.4565 42.1778 31.5229C44.5812 29.4248 46.3605 26.7718 47.3766 23.7895H58.2422C59.213 23.7895 60 23.0025 60 22.0317V1.75781C60 0.787031 59.213 0 58.2422 0Z" fill="#EFBCAA"/>
<path d="M25.6055 42.9014H1.75781C0.787031 42.9014 0 42.1144 0 41.1436C0 40.1728 0.787031 39.3858 1.75781 39.3858H25.6055C26.5763 39.3858 27.3633 40.1728 27.3633 41.1436C27.3633 42.1144 26.5763 42.9014 25.6055 42.9014Z" fill="#4BC2C2"/>
<path d="M58.2422 42.9014H34.3945C33.4237 42.9014 32.6367 42.1144 32.6367 41.1436C32.6367 40.1728 33.4237 39.3858 34.3945 39.3858H58.2422C59.213 39.3858 60 40.1728 60 41.1436C60 42.1144 59.213 42.9014 58.2422 42.9014Z" fill="#4BC2C2"/>
<path d="M30 47.2959C26.6075 47.2959 23.8477 44.5359 23.8477 41.1436C23.8477 37.7512 26.6075 34.9912 30 34.9912C33.3923 34.9912 36.1523 37.7512 36.1523 41.1436C36.1523 44.5359 33.3923 47.2959 30 47.2959Z" fill="#F4D752"/>
<path d="M36.1523 41.1436C36.1523 37.7512 33.3923 34.9912 30 34.9912V47.2959C33.3923 47.2959 36.1523 44.536 36.1523 41.1436Z" fill="#EFBF42"/>
<path d="M40.0201 55.6055H1.75781C0.787031 55.6055 0 54.8184 0 53.8477C0 52.8769 0.787031 52.0898 1.75781 52.0898H40.0201C40.9909 52.0898 41.7779 52.8769 41.7779 53.8477C41.7779 54.8184 40.9909 55.6055 40.0201 55.6055Z" fill="#4BC2C2"/>
<path d="M40.0201 52.0898H30V55.6055H40.0201C40.9909 55.6055 41.7779 54.8184 41.7779 53.8477C41.7779 52.8769 40.9909 52.0898 40.0201 52.0898ZM58.2422 55.6055H48.8092C47.8384 55.6055 47.0514 54.8184 47.0514 53.8477C47.0514 52.8769 47.8384 52.0898 48.8092 52.0898H58.2422C59.213 52.0898 60 52.8769 60 53.8477C60 54.8184 59.213 55.6055 58.2422 55.6055Z" fill="#4BC2C2"/>
<path d="M44.4146 60C41.0222 60 38.2622 57.24 38.2622 53.8477C38.2622 50.4553 41.0222 47.6953 44.4146 47.6953C47.8069 47.6953 50.5669 50.4553 50.5669 53.8477C50.5669 57.24 47.8069 60 44.4146 60Z" fill="#EFBF42"/>
</g>
<defs>
<clipPath id="clip0_1_155">
<rect width="60" height="60" fill="white"/>
</clipPath>
</defs>
</svg>
